<svg width="363" height="56" viewBox="0 0 363 56" fill="none" xmlns="http://www.w3.org/2000/svg">
<rect width="363" height="56" rx="8" fill="#FA002C"/>
<path d="M111.549 20.6738C107.438 20.6738 104.859 23.4766 104.859 27.959C104.859 32.4414 107.438 35.2344 111.549 35.2344C115.65 35.2344 118.229 32.4414 118.229 27.959C118.229 23.4766 115.65 20.6738 111.549 20.6738ZM111.549 22.8223C114.059 22.8223 115.66 24.8145 115.66 27.959C115.66 31.0938 114.059 33.0859 111.549 33.0859C109.029 33.0859 107.438 31.0938 107.438 27.959C107.438 24.8145 109.029 22.8223 111.549 22.8223ZM129.234 28.0566C128.951 26.0352 127.301 24.4336 124.693 24.4336C121.686 24.4336 119.762 26.543 119.762 29.8242C119.762 33.1543 121.686 35.2051 124.713 35.2051C127.242 35.2051 128.961 33.7695 129.254 31.6016H126.949C126.676 32.6367 125.904 33.2422 124.732 33.2422C123.199 33.2422 122.213 31.9629 122.213 29.8242C122.213 27.7246 123.189 26.4062 124.723 26.4062C125.934 26.4062 126.676 27.1289 126.93 28.0566H129.234ZM138.756 24.6484H129.977V26.5234H133.16V35H135.572V26.5234H138.756V24.6484ZM143.775 33.3301C142.721 33.3301 142.018 32.793 142.018 31.9434C142.018 31.123 142.691 30.5957 143.863 30.5176L146.256 30.3711V31.1621C146.256 32.4121 145.152 33.3301 143.775 33.3301ZM143.043 35.166C144.371 35.166 145.67 34.4727 146.266 33.3496H146.314V35H148.658V27.8711C148.658 25.791 146.988 24.4336 144.42 24.4336C141.783 24.4336 140.133 25.8203 140.025 27.7539H142.281C142.438 26.8945 143.17 26.3379 144.322 26.3379C145.523 26.3379 146.256 26.9629 146.256 28.0469V28.7891L143.521 28.9453C141.002 29.1016 139.586 30.2051 139.586 32.041C139.586 33.9062 141.041 35.166 143.043 35.166ZM155.133 26.2988C156.119 26.2988 156.666 26.7578 156.666 27.5684C156.666 28.4277 156.08 28.877 154.947 28.877H153.17V26.2988H155.133ZM155.094 30.4199C156.402 30.4199 157.076 30.918 157.076 31.8848C157.076 32.832 156.441 33.3496 155.289 33.3496H153.17V30.4199H155.094ZM150.787 35H155.777C158.072 35 159.498 33.8379 159.498 32.0117C159.498 30.7129 158.58 29.7559 157.223 29.5801V29.502C158.248 29.3262 159.039 28.3594 159.039 27.2754C159.039 25.6348 157.789 24.6484 155.699 24.6484H150.787V35ZM163.678 35L168.18 28.0371H168.258V35H170.641V24.6484H168.258L163.756 31.5625H163.678V24.6484H161.295V35H163.678ZM180.924 24.6484H172.145V26.5234H175.328V35H177.74V26.5234H180.924V24.6484ZM186.539 29.5996C187.662 29.5996 188.404 30.3027 188.404 31.3672C188.404 32.4219 187.672 33.1348 186.539 33.1348H184.85V29.5996H186.539ZM182.428 35H186.852C189.264 35 190.816 33.5938 190.816 31.377C190.816 29.1602 189.264 27.7539 186.852 27.7539H184.85V24.6484H182.428V35ZM200.445 35.2051C203.111 35.2051 204.811 33.916 204.811 31.9141C204.811 30.752 204.127 29.9023 202.828 29.5898V29.5117C203.824 29.248 204.449 28.3789 204.449 27.334C204.449 25.5566 203.023 24.4336 200.416 24.4336C197.994 24.4336 196.412 25.6348 196.207 27.5879H198.512C198.648 26.7871 199.352 26.3184 200.416 26.3184C201.539 26.3184 202.076 26.8359 202.076 27.5781C202.076 28.418 201.5 28.8281 200.396 28.8281H198.971V30.5078H200.445C201.744 30.5078 202.398 30.9375 202.398 31.875C202.398 32.7148 201.695 33.291 200.445 33.291C199.312 33.291 198.57 32.8125 198.355 31.9238H195.992C196.188 33.9648 197.896 35.2051 200.445 35.2051ZM210.396 33.3301C209.342 33.3301 208.639 32.793 208.639 31.9434C208.639 31.123 209.312 30.5957 210.484 30.5176L212.877 30.3711V31.1621C212.877 32.4121 211.773 33.3301 210.396 33.3301ZM209.664 35.166C210.992 35.166 212.291 34.4727 212.887 33.3496H212.936V35H215.279V27.8711C215.279 25.791 213.609 24.4336 211.041 24.4336C208.404 24.4336 206.754 25.8203 206.646 27.7539H208.902C209.059 26.8945 209.791 26.3379 210.943 26.3379C212.145 26.3379 212.877 26.9629 212.877 28.0469V28.7891L210.143 28.9453C207.623 29.1016 206.207 30.2051 206.207 32.041C206.207 33.9062 207.662 35.166 209.664 35.166ZM221.5 29.7559C220.387 29.7559 219.674 29.0918 219.674 28.1738C219.674 27.1484 220.387 26.5039 221.5 26.5039H223.297V29.7559H221.5ZM223.297 35H225.68V24.6484H221.314C218.854 24.6484 217.262 26.0059 217.262 28.1836C217.262 29.6484 218.131 30.7129 219.566 31.1523L216.783 35H219.498L221.91 31.5332H223.297V35ZM232.203 26.2988C233.189 26.2988 233.736 26.7578 233.736 27.5684C233.736 28.4277 233.15 28.877 232.018 28.877H230.24V26.2988H232.203ZM232.164 30.4199C233.473 30.4199 234.146 30.918 234.146 31.8848C234.146 32.832 233.512 33.3496 232.359 33.3496H230.24V30.4199H232.164ZM227.857 35H232.848C235.143 35 236.568 33.8379 236.568 32.0117C236.568 30.7129 235.65 29.7559 234.293 29.5801V29.502C235.318 29.3262 236.109 28.3594 236.109 27.2754C236.109 25.6348 234.859 24.6484 232.77 24.6484H227.857V35ZM243.102 29.4824L247.486 24.6484H244.654L240.865 28.9648H240.787V24.6484H238.365V35H240.787V30.3711H240.865L244.713 35H247.691L243.102 29.4824ZM249.898 38.8477C252.262 38.8477 253.404 37.9785 254.293 35.4102L258.033 24.6484H255.475L253.033 32.9297H252.994L250.553 24.6484H247.896L251.578 35.0098C251.588 35.0391 251.441 35.5566 251.441 35.5859C251.168 36.543 250.65 36.9238 249.645 36.9238C249.498 36.9238 249.068 36.9141 248.941 36.8848V38.8086C249.068 38.8379 249.762 38.8477 249.898 38.8477Z" fill="white"/>
</svg>
